<svg id="Capa_1" data-name="Capa 1" xmlns="http://www.w3.org/2000/svg" viewBox="0 0 600 150"><defs><style>.cls-1{fill:#7b9f1c;}.cls-2,.cls-4,.cls-5{fill:#122a51;}.cls-2,.cls-4{stroke:#122a51;}.cls-2,.cls-3,.cls-4{stroke-miterlimit:10;}.cls-2,.cls-3{stroke-width:0.5px;}.cls-3,.cls-8{fill:none;}.cls-3{stroke:#6a771f;}.cls-6{fill:#95c11f;}.cls-7{fill:#fff;}.cls-9{fill:#16c471;}.cls-10{fill:#aed813;}.cls-11{fill:#1ca070;}.cls-12{fill:#ffce00;}.cls-13{fill:#005b50;}.cls-14{fill:red;}.cls-15{fill:#ff8b00;}.cls-16{fill:#ff4e00;}.cls-17{fill:#ff0;}.cls-18{fill:#ffbc00;}.cls-19{fill:#ffe000;}.cls-20{fill:#ffa300;}.cls-21{fill:#74960c;}</style></defs><path class="cls-1" d="M157.92,24.14a10.1,10.1,0,0,0-11.13-9L21.42,28.72l-.33.05H158.42Z"/><path class="cls-2" d="M224.78,56.49q6.34,5.41,6.35,15.33,0,10.29-6.35,15.92t-18,5.63H189.92v20.21h-6.17V51.08h23.06Q218.44,51.08,224.78,56.49Zm-4.42,27.27q4.88-4.07,4.87-11.76,0-7.52-4.82-11.44t-13.87-3.94H189.92V87.83h16.62Q215.5,87.83,220.36,83.76Z"/><path class="cls-2" d="M278.16,66.73v46.85h-6.08V102.4a17.47,17.47,0,0,1-6.93,8.4,21.33,21.33,0,0,1-11.13,3q-8.31,0-13-4.88t-4.69-13.36V66.73h6.08V94.09q0,6.61,3.62,10.32t10,3.71q7.5-.09,11.8-5.14t4.29-13.28v-23Z"/><path class="cls-2" d="M303.77,69.45a19.24,19.24,0,0,1,10.42-2.9v5.63q-7.43-.09-11.94,4.34c-3,3-4.72,7-5.13,12v25h-6V66.73h6v10.9A17.91,17.91,0,0,1,303.77,69.45Z"/><path class="cls-2" d="M350.31,69.54a21.59,21.59,0,0,1,8.41,8.36,24.3,24.3,0,0,1,3,12.16,24.69,24.69,0,0,1-3,12.29,21.52,21.52,0,0,1-8.41,8.41,26.14,26.14,0,0,1-24.32,0,21.5,21.5,0,0,1-8.4-8.41,24.59,24.59,0,0,1-3-12.29,24.2,24.2,0,0,1,3-12.16,21.57,21.57,0,0,1,8.4-8.36,26.22,26.22,0,0,1,24.32,0ZM329,74.06a16.12,16.12,0,0,0-6.26,6.52,21.84,21.84,0,0,0,0,19.23,16.06,16.06,0,0,0,6.26,6.52,19,19,0,0,0,18.24,0,16.06,16.06,0,0,0,6.26-6.52,21.84,21.84,0,0,0,0-19.23,16.12,16.12,0,0,0-6.26-6.52,19,19,0,0,0-18.24,0Z"/><path class="cls-3" d="M421.5,56.67q6.62,5.76,6.61,16.22,0,11.1-6.61,17.22t-18.6,6.12H391.72v17.35H375.36V50.9H402.9Q414.89,50.9,421.5,56.67Zm-11.67,24c1.82-1.66,2.72-4.08,2.72-7.24a9,9,0,0,0-2.72-7Q407.1,64,402.1,64H391.72V83.18H402.1Q407.1,83.18,409.83,80.67Z"/><path class="cls-3" d="M469.06,69.18q5.55,4.62,5.63,12.92v31.48H459.05v-5.46q-4.83,6.16-14.58,6.17-7.68,0-12.11-4.16a14.32,14.32,0,0,1-4.43-10.95q0-6.89,4.79-10.73t13.72-3.93h12.61V84a6.44,6.44,0,0,0-2.37-5.36q-2.37-1.87-6.84-1.88a27.79,27.79,0,0,0-6.84,1,41.09,41.09,0,0,0-7.65,2.86L431,69.86a62.73,62.73,0,0,1,11.31-4,47.72,47.72,0,0,1,11.22-1.3Q463.52,64.58,469.06,69.18Zm-13.41,32.55a7.56,7.56,0,0,0,3.4-4.52V93h-9.48q-6.7,0-6.71,5a5,5,0,0,0,1.75,4,7.19,7.19,0,0,0,4.78,1.47A11.24,11.24,0,0,0,455.65,101.73Z"/><path class="cls-3" d="M527.27,65.2v44.08A21,21,0,0,1,524,121a21.45,21.45,0,0,1-9.26,7.78A32.53,32.53,0,0,1,501,131.55a40.35,40.35,0,0,1-11.71-1.7,37.17,37.17,0,0,1-9.93-4.56l5.54-11a28.81,28.81,0,0,0,7.16,3.49,25.07,25.07,0,0,0,7.78,1.25c3.58,0,6.41-.84,8.49-2.5a8.24,8.24,0,0,0,3.13-6.8v-5.19q-4.83,6.36-13.77,6.35a19.37,19.37,0,0,1-18-11.13A27.06,27.06,0,0,1,477,87.56a26.8,26.8,0,0,1,2.55-12,19,19,0,0,1,7.19-8,19.71,19.71,0,0,1,10.55-2.86,19.35,19.35,0,0,1,8.1,1.65,15.86,15.86,0,0,1,6,4.79V65.2ZM508.76,96.14A12,12,0,0,0,511.44,88a12.19,12.19,0,0,0-2.68-8.22,9.54,9.54,0,0,0-14.17,0A12.12,12.12,0,0,0,491.86,88a11.92,11.92,0,0,0,2.73,8.14,9,9,0,0,0,7.11,3.13A8.83,8.83,0,0,0,508.76,96.14Z"/><path class="cls-3" d="M570.72,67.75a22.6,22.6,0,0,1,9.3,8.68,24.91,24.91,0,0,1,3.3,12.92,25.08,25.08,0,0,1-3.3,13,22.6,22.6,0,0,1-9.3,8.68A32.72,32.72,0,0,1,543,111a22.17,22.17,0,0,1-9.25-8.68,25.26,25.26,0,0,1-3.27-13,25.09,25.09,0,0,1,3.27-12.92A22.17,22.17,0,0,1,543,67.75a32.73,32.73,0,0,1,27.72,0Zm-21.37,13.1a12.8,12.8,0,0,0-2.86,8.68,12.92,12.92,0,0,0,2.86,8.76,9.47,9.47,0,0,0,7.51,3.31,9.57,9.57,0,0,0,7.6-3.31,12.92,12.92,0,0,0,2.86-8.76,12.67,12.67,0,0,0-2.91-8.68,9.58,9.58,0,0,0-7.55-3.31A9.47,9.47,0,0,0,549.35,80.85Z"/><path class="cls-4" d="M224.78,56.49q6.34,5.41,6.35,15.33,0,10.29-6.35,15.92t-18,5.63H189.92v20.21h-6.17V51.08h23.06Q218.44,51.08,224.78,56.49Zm-4.42,27.27q4.88-4.07,4.87-11.76,0-7.52-4.82-11.44t-13.87-3.94H189.92V87.83h16.62Q215.5,87.83,220.36,83.76Z"/><path class="cls-4" d="M278.16,66.73v46.85h-6.08V102.4a17.47,17.47,0,0,1-6.93,8.4,21.33,21.33,0,0,1-11.13,3q-8.31,0-13-4.88t-4.69-13.36V66.73h6.08V94.09q0,6.61,3.62,10.32t10,3.71q7.5-.09,11.8-5.14t4.29-13.28v-23Z"/><path class="cls-4" d="M303.77,69.45a19.24,19.24,0,0,1,10.42-2.9v5.63q-7.43-.09-11.94,4.34c-3,3-4.72,7-5.13,12v25h-6V66.73h6v10.9A17.91,17.91,0,0,1,303.77,69.45Z"/><path class="cls-4" d="M350.31,69.54a21.59,21.59,0,0,1,8.41,8.36,24.3,24.3,0,0,1,3,12.16,24.69,24.69,0,0,1-3,12.29,21.52,21.52,0,0,1-8.41,8.41,26.14,26.14,0,0,1-24.32,0,21.5,21.5,0,0,1-8.4-8.41,24.59,24.59,0,0,1-3-12.29,24.2,24.2,0,0,1,3-12.16,21.57,21.57,0,0,1,8.4-8.36,26.22,26.22,0,0,1,24.32,0ZM329,74.06a16.12,16.12,0,0,0-6.26,6.52,21.84,21.84,0,0,0,0,19.23,16.06,16.06,0,0,0,6.26,6.52,19,19,0,0,0,18.24,0,16.06,16.06,0,0,0,6.26-6.52,21.84,21.84,0,0,0,0-19.23,16.12,16.12,0,0,0-6.26-6.52,19,19,0,0,0-18.24,0Z"/><path class="cls-5" d="M224.78,56.49q6.34,5.41,6.35,15.33,0,10.29-6.35,15.92t-18,5.63H189.92v20.21h-6.17V51.08h23.06Q218.44,51.08,224.78,56.49Zm-4.42,27.27q4.88-4.07,4.87-11.76,0-7.52-4.82-11.44t-13.87-3.94H189.92V87.83h16.62Q215.5,87.83,220.36,83.76Z"/><path class="cls-5" d="M278.16,66.73v46.85h-6.08V102.4a17.47,17.47,0,0,1-6.93,8.4,21.33,21.33,0,0,1-11.13,3q-8.31,0-13-4.88t-4.69-13.36V66.73h6.08V94.09q0,6.61,3.62,10.32t10,3.71q7.5-.09,11.8-5.14t4.29-13.28v-23Z"/><path class="cls-5" d="M303.77,69.45a19.24,19.24,0,0,1,10.42-2.9v5.63q-7.43-.09-11.94,4.34c-3,3-4.72,7-5.13,12v25h-6V66.73h6v10.9A17.91,17.91,0,0,1,303.77,69.45Z"/><path class="cls-5" d="M350.31,69.54a21.59,21.59,0,0,1,8.41,8.36,24.3,24.3,0,0,1,3,12.16,24.69,24.69,0,0,1-3,12.29,21.52,21.52,0,0,1-8.41,8.41,26.14,26.14,0,0,1-24.32,0,21.5,21.5,0,0,1-8.4-8.41,24.59,24.59,0,0,1-3-12.29,24.2,24.2,0,0,1,3-12.16,21.57,21.57,0,0,1,8.4-8.36,26.22,26.22,0,0,1,24.32,0ZM329,74.06a16.12,16.12,0,0,0-6.26,6.52,21.84,21.84,0,0,0,0,19.23,16.06,16.06,0,0,0,6.26,6.52,19,19,0,0,0,18.24,0,16.06,16.06,0,0,0,6.26-6.52,21.84,21.84,0,0,0,0-19.23,16.12,16.12,0,0,0-6.26-6.52,19,19,0,0,0-18.24,0Z"/><path class="cls-6" d="M421.5,56.67q6.62,5.76,6.61,16.22,0,11.1-6.61,17.22t-18.6,6.12H391.72v17.35H375.36V50.9H402.9Q414.89,50.9,421.5,56.67Zm-11.67,24c1.82-1.66,2.72-4.08,2.72-7.24a9,9,0,0,0-2.72-7Q407.1,64,402.1,64H391.72V83.18H402.1Q407.1,83.18,409.83,80.67Z"/><path class="cls-6" d="M469.06,69.18q5.55,4.62,5.63,12.92v31.48H459.05v-5.46q-4.83,6.16-14.58,6.17-7.68,0-12.11-4.16a14.32,14.32,0,0,1-4.43-10.95q0-6.89,4.79-10.73t13.72-3.93h12.61V84a6.44,6.44,0,0,0-2.37-5.36q-2.37-1.87-6.84-1.88a27.79,27.79,0,0,0-6.84,1,41.09,41.09,0,0,0-7.65,2.86L431,69.86a62.73,62.73,0,0,1,11.31-4,47.72,47.72,0,0,1,11.22-1.3Q463.52,64.58,469.06,69.18Zm-13.41,32.55a7.56,7.56,0,0,0,3.4-4.52V93h-9.48q-6.7,0-6.71,5a5,5,0,0,0,1.75,4,7.19,7.19,0,0,0,4.78,1.47A11.24,11.24,0,0,0,455.65,101.73Z"/><path class="cls-6" d="M527.27,65.2v44.08A21,21,0,0,1,524,121a21.45,21.45,0,0,1-9.26,7.78A32.53,32.53,0,0,1,501,131.55a40.35,40.35,0,0,1-11.71-1.7,37.17,37.17,0,0,1-9.93-4.56l5.54-11a28.81,28.81,0,0,0,7.16,3.49,25.07,25.07,0,0,0,7.78,1.25c3.58,0,6.41-.84,8.49-2.5a8.24,8.24,0,0,0,3.13-6.8v-5.19q-4.83,6.36-13.77,6.35a19.37,19.37,0,0,1-18-11.13A27.06,27.06,0,0,1,477,87.56a26.8,26.8,0,0,1,2.55-12,19,19,0,0,1,7.19-8,19.71,19.71,0,0,1,10.55-2.86,19.35,19.35,0,0,1,8.1,1.65,15.86,15.86,0,0,1,6,4.79V65.2ZM508.76,96.14A12,12,0,0,0,511.44,88a12.19,12.19,0,0,0-2.68-8.22,9.54,9.54,0,0,0-14.17,0A12.12,12.12,0,0,0,491.86,88a11.92,11.92,0,0,0,2.73,8.14,9,9,0,0,0,7.11,3.13A8.83,8.83,0,0,0,508.76,96.14Z"/><path class="cls-6" d="M570.72,67.75a22.6,22.6,0,0,1,9.3,8.68,24.91,24.91,0,0,1,3.3,12.92,25.08,25.08,0,0,1-3.3,13,22.6,22.6,0,0,1-9.3,8.68A32.72,32.72,0,0,1,543,111a22.17,22.17,0,0,1-9.25-8.68,25.26,25.26,0,0,1-3.27-13,25.09,25.09,0,0,1,3.27-12.92A22.17,22.17,0,0,1,543,67.75a32.73,32.73,0,0,1,27.72,0Zm-21.37,13.1a12.8,12.8,0,0,0-2.86,8.68,12.92,12.92,0,0,0,2.86,8.76,9.47,9.47,0,0,0,7.51,3.31,9.57,9.57,0,0,0,7.6-3.31,12.92,12.92,0,0,0,2.86-8.76,12.67,12.67,0,0,0-2.91-8.68,9.58,9.58,0,0,0-7.55-3.31A9.47,9.47,0,0,0,549.35,80.85Z"/><path class="cls-7" d="M122,70.64h45.79a0,0,0,0,1,0,0V94.15a0,0,0,0,1,0,0H122a5,5,0,0,1-5-5V75.6A5,5,0,0,1,122,70.64Z"/><path class="cls-5" d="M114.24,135.44h43.49a10.09,10.09,0,0,0,10.09-10.09V94.15h-47.6a3.16,3.16,0,0,1-3.1-2.57q-10.37,8-23.33,16.44C103.55,117.45,110.37,126.51,114.24,135.44Z"/><path class="cls-5" d="M140.4,70.64h27.42V38.86a10.08,10.08,0,0,0-9.43-10C159.52,42.54,153.53,56.21,140.4,70.64Z"/><path class="cls-8" d="M140.4,70.64h0a180.78,180.78,0,0,1-23.26,20.93h0A181.08,181.08,0,0,0,140.4,70.64Z"/><path class="cls-9" d="M115.6,92.74a299.29,299.29,0,0,0-19.51-64H27.26c43.6,40.79,65.54,78.29,65.54,78.29h0l1,1q13-8.46,23.33-16.44h0C116.61,92,116.12,92.35,115.6,92.74Z"/><path class="cls-5" d="M140.38,70.64h0c13.13-14.43,19.12-28.1,18-41.83h0C159.5,42.54,153.51,56.21,140.38,70.64Z"/><path class="cls-10" d="M158.37,28.81c-.21,0-.43,0-.64,0H96.09a299.29,299.29,0,0,1,19.51,64c.52-.39,1-.78,1.52-1.17a3.68,3.68,0,0,1-.06-.58V73.8a3.16,3.16,0,0,1,3.16-3.16h20.16C153.51,56.21,159.5,42.54,158.37,28.81Z"/><path class="cls-11" d="M12,38.86V52.08l.95.53,1.09.61,1.76,1,1,.58.14.08.17.09,1.63.93.88.5L22.44,58l4,2.35.83.49,4,2.34.09.06q1.94,1.14,3.81,2.28l.68.41c1.29.78,2.57,1.55,3.83,2.33l.18.11,3.67,2.27.41.26q3,1.88,5.88,3.72l.59.38,1.88,1.22,1.21.78,1.21.8L56.51,79l.6.4,2.3,1.54,0,0C72.86,90.05,84,98.7,92.79,107.06h0S70.86,69.56,27.26,28.77h-5.2A10.09,10.09,0,0,0,12,38.86Z"/><path class="cls-5" d="M93.79,108h0c9.75,9.42,16.57,18.48,20.45,27.41h0C110.37,126.51,103.55,117.45,93.79,108Z"/><path class="cls-12" d="M65,125.57l-1.08.63q-8.47,4.89-16.43,9.22H64.92C65.08,132,65.1,128.74,65,125.57Z"/><path class="cls-5" d="M93.79,108h0l-1-1h0Z"/><path class="cls-13" d="M52.31,76.24l1.21.78Z"/><path class="cls-13" d="M18.73,55.89l.88.5Z"/><path class="cls-13" d="M54.73,77.82,56.51,79Z"/><path class="cls-13" d="M49.84,74.64l.59.38Z"/><path class="cls-13" d="M12.92,52.61l1.09.61Z"/><path class="cls-13" d="M15.77,54.21l1,.58Z"/><path class="cls-14" d="M26.49,60.37l-4-2.35,4,2.32Z"/><path class="cls-14" d="M47.74,73.3l0,0,2.06,1.32Q47,72.79,44,70.92L44,71C45.29,71.75,46.53,72.52,47.74,73.3Z"/><path class="cls-14" d="M16.93,54.87l.17.09Z"/><path class="cls-14" d="M53.52,77l1.21.8Z"/><path class="cls-14" d="M50.43,75l1.88,1.22Z"/><path class="cls-14" d="M35.08,65.47l.11.07q-1.87-1.14-3.81-2.28l.18.1Z"/><path class="cls-14" d="M43.44,70.59l.11.07-3.67-2.27.15.09Z"/><path class="cls-14" d="M31.24,63.17l.05,0-4-2.34.06,0Z"/><path class="cls-14" d="M39.65,68.25l.05,0c-1.26-.78-2.54-1.55-3.83-2.33L36,66C37.21,66.76,38.44,67.5,39.65,68.25Z"/><path class="cls-14" d="M93.78,108h0l-1-1h0Z"/><path class="cls-14" d="M43.44,70.59,40,68.48Z"/><path class="cls-14" d="M39.65,68.25C38.44,67.5,37.21,66.76,36,66,37.21,66.76,38.44,67.5,39.65,68.25Z"/><path class="cls-14" d="M47.74,73.3c-1.21-.78-2.45-1.55-3.7-2.34C45.29,71.75,46.53,72.52,47.74,73.3Z"/><path class="cls-14" d="M22.44,58l4,2.32Z"/><path class="cls-14" d="M31.24,63.17,27.38,60.9Z"/><path class="cls-15" d="M64.86,121.78C63.51,97.58,55.91,81,54.44,78c-12.28-3.6-23.84-6.46-34.64-8.69C23.39,82.13,20.75,94.83,12,108v17.36a10.07,10.07,0,0,0,10.09,10.08H47.59q7.92-4.3,16.36-9.18l1.07-.62C65,124.32,64.93,123,64.86,121.78Z"/><path class="cls-14" d="M35.08,65.47l-3.52-2.11Z"/><path class="cls-14" d="M12,108l0,0,0,0Z"/><path class="cls-14" d="M13.18,106.1c-.36.58-.73,1.16-1.12,1.74C12.45,107.26,12.82,106.68,13.18,106.1Z"/><path class="cls-14" d="M14.28,104.3c-.31.52-.62,1-.94,1.56C13.66,105.34,14,104.82,14.28,104.3Z"/><path class="cls-14" d="M16.35,100.47l-.05.09Z"/><path class="cls-14" d="M13.34,105.86c-.06.08-.1.16-.16.24C13.24,106,13.28,105.94,13.34,105.86Z"/><path class="cls-14" d="M12.06,107.84l-.07.1Z"/><path class="cls-14" d="M14.39,104.1a2,2,0,0,0-.11.2A2,2,0,0,1,14.39,104.1Z"/><path class="cls-16" d="M19.89,91.22a1.6,1.6,0,0,1-.05.21A1.6,1.6,0,0,0,19.89,91.22Z"/><polygon class="cls-16" points="18.04 96.7 18.04 96.7 18.04 96.7 18.04 96.7"/><polygon class="cls-16" points="15.6 101.93 15.6 101.93 15.59 101.93 15.6 101.93"/><path class="cls-16" d="M21.25,77.28c0-.09,0-.18,0-.27-.05-.52-.11-1-.17-1.56,0-.19,0-.38-.08-.58-.07-.5-.14-1-.23-1.5,0-.19-.08-.39-.11-.58-.1-.52-.2-1-.32-1.55a1.36,1.36,0,0,1,0-.17c-.14-.6-.28-1.2-.45-1.8h0c-2.65-.54-5.27-1.06-7.83-1.53V108l0,0,0,0v0c.29-.44.56-.87.84-1.31-.25.39-.49.77-.75,1.16.26-.39.5-.77.75-1.16h0l.37-.58c.06-.08.1-.16.16-.24.32-.52.63-1,.94-1.56a2,2,0,0,1,.11-.2c.42-.72.82-1.45,1.21-2.17.24-.46.48-.91.7-1.37l.05-.09c.11-.22.2-.43.31-.65h0L17,99h0c.07-.16.15-.31.22-.47s.12-.26.17-.39c.2-.45.39-.9.58-1.35A1.21,1.21,0,0,1,18,96.7h0c0-.07.07-.15.1-.23l0,0c.21-.53.41-1,.6-1.58a.56.56,0,0,1,0-.12h0c0-.1.07-.19.1-.29s0-.09.05-.13c.18-.53.36-1,.52-1.58l.12-.4c.08-.3.16-.59.25-.89l-.15.52c.08-.31.17-.62.25-.92a1.33,1.33,0,0,1-.05.19c0-.13.08-.27.11-.41s.07-.28.11-.42c.12-.49.24-1,.34-1.47,0-.1.05-.2.07-.3.1-.52.21-1.05.29-1.57,0-.12.05-.24.06-.36.09-.52.16-1,.22-1.57l.06-.55c.05-.51.1-1,.13-1.54l0-.48A42.11,42.11,0,0,0,21.25,77.28Z"/><path class="cls-16" d="M17,99.05l-.36.77Z"/><path class="cls-17" d="M35.19,65.54l.68.41Z"/><path class="cls-17" d="M39.7,68.28l.18.11Z"/><path class="cls-17" d="M18.73,55.89,17.1,55l.37.22Z"/><path class="cls-17" d="M43.55,70.66l.41.26Z"/><path class="cls-17" d="M31.29,63.2l.09.06Z"/><path class="cls-17" d="M16.93,54.87l-.14-.08.05,0Z"/><path class="cls-17" d="M14,53.22l1.76,1Z"/><path class="cls-17" d="M12.28,52.25l.64.36L12,52.08h0Z"/><path class="cls-17" d="M19.61,56.39,22.44,58Z"/><path class="cls-17" d="M26.49,60.37l.83.49Z"/><path class="cls-17" d="M16.84,54.82l-.05,0-1-.58-1.76-1-1.09-.61-.64-.36Q14.54,53.51,16.84,54.82Z"/><path class="cls-17" d="M22.44,58l-2.83-1.63-.88-.5-1.26-.71C19.11,56.11,20.77,57.05,22.44,58Z"/><path class="cls-17" d="M27.38,60.9l-.06,0-.83-.49-.06,0Z"/><path class="cls-17" d="M36,66l-.1-.06-.68-.41-.11-.07Z"/><path class="cls-17" d="M12,52.08h0l.31.17Z"/><path class="cls-17" d="M31.56,63.36l-.18-.1-.09-.06-.05,0Z"/><path class="cls-17" d="M17.47,55.18,17.1,55l-.17-.09-.09,0Z"/><path class="cls-17" d="M47.78,73.32l0,0Z"/><path class="cls-17" d="M44,71l-.08,0-.41-.26-.11-.07Z"/><path class="cls-17" d="M40,68.48l-.15-.09-.18-.11-.05,0Z"/><path class="cls-17" d="M55.33,78.22l-.53-.35.52.35Z"/><path class="cls-17" d="M19.82,69.27h0A57.56,57.56,0,0,0,12,52.82h0A57.35,57.35,0,0,1,19.82,69.27Z"/><path class="cls-15" d="M12,52.86V67.73c2.56.47,5.18,1,7.83,1.53A57.33,57.33,0,0,0,12,52.86Z"/><path class="cls-17" d="M65,125.63l2.36-1.37L65,125.63Z"/><path class="cls-17" d="M79.64,116.94q7.42-4.53,14.15-8.91h0Q87.06,112.42,79.64,116.94Z"/><path class="cls-17" d="M75.69,119.34l-3.34,2Z"/><path class="cls-17" d="M79.49,117c-1.12.69-2.25,1.37-3.4,2.06C77.24,118.4,78.37,117.72,79.49,117Z"/><path class="cls-17" d="M71,122.15l-2.07,1.22Z"/><path class="cls-17" d="M83,98.44Z"/><path class="cls-17" d="M68.89,123.37l-1.52.89Z"/><path class="cls-17" d="M76.09,119.09l-.4.25Z"/><path class="cls-17" d="M79.64,116.94l-.15.09Z"/><path class="cls-17" d="M72.35,121.33l-1.39.82Z"/><path class="cls-17" d="M54.19,77.47h0l.61.4Z"/><path class="cls-18" d="M92.79,107.07q-4.5-4.26-9.78-8.63h0A324.45,324.45,0,0,0,55.32,78.22L54.43,78C55.9,81,63.5,97.6,64.86,121.8c.07,1.25.12,2.53.15,3.83l2.36-1.37,1.52-.89L71,122.15l1.39-.82,3.34-2,.4-.25c1.15-.69,2.28-1.37,3.4-2.06l.15-.09q7.42-4.53,14.14-8.92Z"/><path class="cls-19" d="M93.79,108q-6.72,4.38-14.15,8.91l-.15.09c-1.12.69-2.25,1.37-3.4,2.06l-.4.25-3.34,2-1.39.82-2.07,1.22-1.52.89L65,125.63q.13,4.74-.09,9.81h49.32C110.36,126.51,103.54,117.45,93.79,108Z"/><path class="cls-20" d="M54.8,77.87l-.61-.4C52.1,76.1,50,74.72,47.78,73.32l0,0c-1.21-.78-2.45-1.55-3.7-2.34l-.6-.37L40,68.48l-.38-.23C38.44,67.5,37.21,66.76,36,66l-.89-.54-3.52-2.11-.32-.19L27.38,60.9l-.95-.56-4-2.32c-1.67-1-3.33-1.91-5-2.84l-.63-.36q-2.29-1.3-4.56-2.57L12,52.08v.75h0v0a57.33,57.33,0,0,1,7.83,16.4h0c10.8,2.23,22.33,5.1,34.61,8.69l.89.26ZM13.72,55.58a61.75,61.75,0,0,1,3,5.44v0C15.83,59.24,14.83,57.41,13.72,55.58Z"/><path class="cls-8" d="M120.22,70.64h47.6V38.86a10.09,10.09,0,0,0-10.09-10.09H22.06A10.09,10.09,0,0,0,12,38.86v86.49a10.09,10.09,0,0,0,10.09,10.09H157.73a10.09,10.09,0,0,0,10.09-10.09V94.15h-47.6A3.17,3.17,0,0,1,117.06,91V73.8A3.16,3.16,0,0,1,120.22,70.64Z"/><rect class="cls-6" x="127.49" y="77.74" width="36.18" height="9.31" rx="0.54"/><rect class="cls-21" x="108.14" y="42.25" width="38.7" height="8.68" rx="0.48"/></svg>